<svg width="90" height="54" viewBox="0 0 90 54" fill="none" xmlns="http://www.w3.org/2000/svg">
<path d="M8.53553 1.46447C6.58291 -0.488155 3.41709 -0.488155 1.46447 1.46447C-0.488155 3.41709 -0.488155 6.58291 1.46447 8.53553L8.53553 1.46447ZM40.3431 47.4142L43.8787 50.9497L50.9497 43.8787L47.4142 40.3431L40.3431 47.4142ZM1.46447 8.53553L40.3431 47.4142L47.4142 40.3431L8.53553 1.46447L1.46447 8.53553Z" fill="#F3F3F3"/>
<path d="M49.5355 49.5355L46 53.0711L38.9289 46L42.4645 42.4645L49.5355 49.5355ZM81.3431 3.58579C83.2958 1.63316 86.4616 1.63316 88.4142 3.58579C90.3668 5.53841 90.3668 8.70423 88.4142 10.6569L81.3431 3.58579ZM42.4645 42.4645L81.3431 3.58579L88.4142 10.6569L49.5355 49.5355L42.4645 42.4645Z" fill="#F3F3F3"/>
</svg>
