<svg width="84" height="46" viewBox="0 0 84 46" fill="none" xmlns="http://www.w3.org/2000/svg">
<path d="M3.06066 0.93934C2.47487 0.353553 1.52513 0.353553 0.93934 0.93934C0.353553 1.52513 0.353553 2.47487 0.93934 3.06066L3.06066 0.93934ZM39.818 41.9393L40.8787 43L43 40.8787L41.9393 39.818L39.818 41.9393ZM0.93934 3.06066L39.818 41.9393L41.9393 39.818L3.06066 0.93934L0.93934 3.06066Z" fill="#F3F3F3"/>
<path d="M44.0607 44.0607L43 45.1213L40.8787 43L41.9393 41.9393L44.0607 44.0607ZM80.818 3.06066C81.4038 2.47487 82.3536 2.47487 82.9393 3.06066C83.5251 3.64645 83.5251 4.59619 82.9393 5.18198L80.818 3.06066ZM41.9393 41.9393L80.818 3.06066L82.9393 5.18198L44.0607 44.0607L41.9393 41.9393Z" fill="#F3F3F3"/>
</svg>
