<svg width="231" height="231" viewBox="0 0 231 231" fill="none" xmlns="http://www.w3.org/2000/svg">
<rect width="231" height="231" fill="#415172"/>
<path d="M133.796 92.676H75.4491C74.3438 92.676 73.2837 92.2369 72.5022 91.4554C71.7206 90.6738 71.2815 89.6138 71.2815 88.5084V71.838C71.2815 70.7327 71.7206 69.6727 72.5022 68.8911C73.2837 68.1095 74.3438 67.6704 75.4491 67.6704H133.796C134.901 67.6704 135.961 68.1095 136.743 68.8911C137.524 69.6727 137.963 70.7327 137.963 71.838V88.5084C137.963 89.6138 137.524 90.6738 136.743 91.4554C135.961 92.2369 134.901 92.676 133.796 92.676ZM79.6167 84.3408H129.628V75.7556H79.6167V84.3408Z" fill="#FFFBFB"/>
<path d="M133.796 101.345H75.4491C74.3438 101.345 73.2837 101.784 72.5022 102.565C71.7206 103.347 71.2815 104.407 71.2815 105.512V121.849C71.2815 122.955 71.7206 124.015 72.5022 124.796C73.2837 125.578 74.3438 126.017 75.4491 126.017H122.793L137.963 110.597V105.512C137.963 104.407 137.524 103.347 136.743 102.565C135.961 101.784 134.901 101.345 133.796 101.345ZM129.628 117.682H79.6167V109.346H129.628V117.682Z" fill="#FFFBFB"/>
<path d="M92.3696 173.986V173.736L93.7032 167.943H62.9463V59.3352H146.298V102.053L154.634 94.1764V55.1676C154.634 54.0623 154.195 53.0022 153.413 52.2207C152.631 51.4391 151.571 51 150.466 51H58.7787C57.6734 51 56.6133 51.4391 55.8317 52.2207C55.0502 53.0022 54.6111 54.0623 54.6111 55.1676V171.861C54.6111 172.966 55.0502 174.026 55.8317 174.807C56.6133 175.589 57.6734 176.028 58.7787 176.028H92.1195C92.1539 175.342 92.2374 174.66 92.3696 173.986Z" fill="#FFFBFB"/>
<path d="M137.963 122.558L134.712 125.85C135.519 125.684 136.258 125.282 136.837 124.696C137.415 124.111 137.807 123.366 137.963 122.558Z" fill="#FFFBFB"/>
<path d="M71.2815 154.94C71.2815 156.045 71.7206 157.105 72.5022 157.887C73.2837 158.669 74.3438 159.108 75.4491 159.108H95.6203L96.8706 153.69L97.4124 151.398V151.189H79.6167V142.687H106.039L114.375 134.352H75.4491C74.3438 134.352 73.2837 134.791 72.5022 135.573C71.7206 136.354 71.2815 137.414 71.2815 138.52V154.94Z" fill="#FFFBFB"/>
<path d="M185.849 112.139L171.804 98.094C171.181 97.469 170.44 96.9731 169.625 96.6347C168.81 96.2964 167.936 96.1222 167.053 96.1222C166.17 96.1222 165.296 96.2964 164.481 96.6347C163.666 96.9731 162.925 97.469 162.302 98.094L105.164 155.565L100.455 175.611C100.279 176.476 100.275 177.367 100.443 178.234C100.612 179.1 100.95 179.925 101.437 180.66C101.925 181.396 102.553 182.028 103.286 182.52C104.018 183.013 104.841 183.356 105.706 183.53C106.136 183.573 106.568 183.573 106.998 183.53C107.509 183.613 108.029 183.613 108.54 183.53L128.753 179.071L185.849 121.849C186.473 121.23 186.968 120.493 187.306 119.681C187.643 118.869 187.817 117.998 187.817 117.119C187.817 116.24 187.643 115.369 187.306 114.557C186.968 113.746 186.473 113.009 185.849 112.389V112.139ZM124.502 171.485L109.248 174.861L112.958 159.733L155.801 116.431L167.553 128.184L124.502 171.485ZM172.263 123.475L160.51 111.722L167.136 105.179L178.972 117.015L172.263 123.475Z" fill="#FFFBFB"/>
</svg>
