<svg width="231" height="231" viewBox="0 0 231 231" fill="none" xmlns="http://www.w3.org/2000/svg">
<rect width="231" height="231" fill="#415172"/>
<path d="M181.431 172.189C171.615 155.219 156.488 143.05 138.834 137.282C147.566 132.083 154.351 124.162 158.146 114.735C161.94 105.307 162.535 94.8947 159.84 85.0962C157.144 75.2977 151.306 66.6551 143.223 60.4955C135.14 54.3359 125.258 51 115.096 51C104.933 51 95.0519 54.3359 86.9688 60.4955C78.8857 66.6551 73.048 75.2977 70.3522 85.0962C67.6564 94.8947 68.2516 105.307 72.0463 114.735C75.8411 124.162 82.6255 132.083 91.3579 137.282C73.7041 143.044 58.577 155.212 48.7608 172.189C48.4008 172.776 48.162 173.429 48.0586 174.11C47.9551 174.791 47.989 175.486 48.1583 176.153C48.3276 176.82 48.6289 177.447 49.0443 177.996C49.4598 178.545 49.981 179.006 50.5772 179.35C51.1735 179.694 51.8326 179.916 52.5159 180.001C53.1991 180.087 53.8925 180.035 54.5553 179.848C55.218 179.661 55.8366 179.343 56.3745 178.914C56.9125 178.484 57.359 177.951 57.6875 177.346C69.8305 156.36 91.2934 143.83 115.096 143.83C138.898 143.83 160.361 156.36 172.504 177.346C172.833 177.951 173.279 178.484 173.817 178.914C174.355 179.343 174.974 179.661 175.637 179.848C176.299 180.035 176.993 180.087 177.676 180.001C178.359 179.916 179.018 179.694 179.615 179.35C180.211 179.006 180.732 178.545 181.148 177.996C181.563 177.447 181.864 176.82 182.034 176.153C182.203 175.486 182.237 174.791 182.133 174.11C182.03 173.429 181.791 172.776 181.431 172.189ZM79.0022 97.4238C79.0022 90.2851 81.1191 83.3068 85.0851 77.3712C89.0511 71.4356 94.6882 66.8094 101.283 64.0775C107.879 61.3457 115.136 60.6309 122.137 62.0236C129.139 63.4162 135.57 66.8538 140.618 71.9016C145.666 76.9494 149.103 83.3807 150.496 90.3822C151.889 97.3837 151.174 104.641 148.442 111.236C145.71 117.832 141.084 123.469 135.149 127.435C129.213 131.401 122.235 133.518 115.096 133.518C105.526 133.507 96.3518 129.701 89.5851 122.935C82.8184 116.168 79.0124 106.993 79.0022 97.4238Z" fill="white"/>
</svg>
